<svg width="267" height="31" viewBox="0 0 267 31" fill="none" xmlns="http://www.w3.org/2000/svg">
<path d="M40.538 11.0672L41.7763 12.1373C41.7763 11.7806 41.8942 11.6023 42.1301 11.6023H42.307L44.7836 18.0229V18.3796H44.6067L44.2529 17.3095H44.076V17.6662L45.3143 20.6981H45.4912C45.9629 17.6067 46.6427 14.3789 47.5307 11.0148L48.0614 11.3715L48.5921 11.1931L49.6535 11.7282V11.9065C49.2997 11.9065 49.1228 12.1443 49.1228 12.6199H49.2997L49.4766 12.7983H49.6535L49.8304 11.9065H50.1842V12.0849L50.0073 12.2632L50.1842 12.4416V12.6199C49.2962 15.3686 48.4984 19.3098 47.7908 24.4435H47.437L47.7908 21.5899C47.555 21.5899 47.2012 22.7194 46.7295 24.9785C46.2924 25.3352 45.8796 25.5136 45.4912 25.5136V25.8703H45.3143C45.3143 25.6325 45.0784 25.5136 44.6067 25.5136V24.2651C44.6067 23.7266 43.4273 20.7541 41.0687 15.3476H40.8918C40.4201 17.4669 40.0073 20.3205 39.6535 23.9084L39.4766 23.7301C38.769 23.9399 38.4152 24.2372 38.4152 24.6218H38.0614C37.8255 24.1742 37.7076 23.4014 37.7076 22.3033H37.5307V23.9084H37.1769L37 23.0167C37 19.7854 37.7076 15.8617 39.1228 11.2456L40.538 11.0672ZM38.0614 15.526V15.7043L38.2383 15.8827L38.0614 16.061V16.4177H38.2383L38.4152 15.7043L38.2383 15.526H38.0614ZM44.7836 18.3796C45.0888 18.3796 45.3247 18.8552 45.4912 19.8064V19.9847H45.3143L44.7836 18.3796Z" fill="white"/>
<path d="M58.8522 10.5322H59.0291V10.8889L59.206 10.7105H59.3829C60.2085 10.9903 60.6212 11.2281 60.6212 11.4239L59.7367 12.494H60.0905C60.5623 12.2492 60.7981 11.952 60.7981 11.6023H61.3288V11.7806L61.1519 11.959L61.3288 12.1373V12.3157C57.1387 16.8619 55.0923 20.4848 55.1894 23.1845L54.8356 24.9576L55.0125 25.1359V25.3143L54.128 26.9194L52.7128 26.7411V25.3143L52.1821 24.6113V24.2546L52.359 22.1144L52.5359 22.2928H52.7128L52.5359 22.1144V21.9361L52.7128 21.7577V21.5794L52.5359 21.401L53.0666 21.2227L52.8897 22.1144V22.8278H53.0666L53.2747 20.6772L53.0978 20.1421H52.9209V20.6772H52.744L52.5671 19.2504L52.744 19.072V18.8937L50.3091 12.6304V12.2737H50.6629L50.3091 11.382L50.486 11.2036H50.8398C51.1103 11.2036 51.2872 11.5009 51.3704 12.0954L51.9011 11.7387H52.4318C52.4318 12.4731 53.0666 14.0257 54.3361 16.3968C55.016 15.0958 55.6056 14.323 56.1051 14.0782V14.2566C54.9258 15.7673 54.3361 16.659 54.3361 16.9318V17.1102H54.513L58.6753 11.4239V11.2456L56.6358 13.3648V13.1865L58.8522 10.5322ZM56.6358 13.3648V13.5432L56.282 13.8999V13.7215L56.6358 13.3648ZM59.0291 13.2074C56.4901 16.4877 55.2206 18.3831 55.2206 18.8937H55.5744C56.5942 16.9143 57.8047 15.0189 59.206 13.2074H59.0291ZM53.2435 25.671V26.3844H53.4204V25.671H53.2435Z" fill="white"/>
<path d="M70.9126 10.4168L71.0895 10.5951V10.7735L70.9126 10.9518L70.7357 10.7735H70.5588L68.9667 11.8436H68.7898C68.7898 11.5288 69.4974 11.0532 70.9126 10.4168ZM64.0135 10.7735L64.1904 12.3786C64.4263 12.3786 64.6032 12.0219 64.7211 11.3085H64.898L65.0749 12.0219L64.5442 14.8755L66.4901 13.4487H66.667L64.5442 15.4106V15.5889L68.6129 12.557L68.7898 12.7353C70.3784 11.4274 71.4398 10.7735 71.974 10.7735H72.1509L72.3278 11.4869L70.9126 12.9137H71.0895C71.3254 12.4381 71.6792 12.2003 72.1509 12.2003L72.3278 12.3786V12.2003L72.1509 12.0219L72.3278 11.8436H72.8585L73.0354 12.3786C72.1474 12.7983 70.0836 14.344 66.8439 17.0157C67.6417 18.7713 69.0569 21.1493 71.0895 24.1497V24.5064L70.9126 25.7549L70.7357 25.5765H70.5588L70.3819 26.2899H69.6743V25.9332H69.4974V26.2899H69.1436C69.1436 25.8703 67.8463 23.6706 65.2518 19.691L64.898 18.6209L64.0135 18.7992C63.8609 21.6598 63.4898 23.4433 62.9001 24.1497V24.3281L61.1311 24.1497V23.6147L61.308 22.3662C60.9542 22.3662 60.7773 22.0095 60.7773 21.2961C60.9716 20.1071 61.1658 19.5126 61.36 19.5126L61.1831 19.3343C61.5369 16.061 61.8907 14.0992 62.2445 13.4487L62.0676 12.9137L62.5983 11.4869V11.3085L62.4214 11.1302V10.9518H62.7752V12.2003H62.9521L63.129 11.6652L62.9521 11.4869V11.3085C63.0701 10.9518 63.4239 10.7735 64.0135 10.7735ZM68.6129 11.8436H68.7898L68.0822 12.557H67.9053L68.6129 11.8436ZM62.5983 12.7353L62.4214 13.8054V14.5188H62.5983L62.7752 12.9137V12.7353H62.5983ZM67.7284 12.557H67.9053L66.8439 13.4487H66.667L67.7284 12.557ZM70.0281 13.2704L69.3205 13.8054L69.1436 13.9838V14.1621H69.3205L70.0281 13.6271L70.205 13.4487V13.2704H70.0281ZM67.0208 23.4363H67.1977L67.7284 23.9714H67.5515L67.0208 23.4363ZM67.7284 23.9714C68.0267 23.9714 68.3215 24.5659 68.6129 25.7549V25.9332H68.436L67.7284 23.9714Z" fill="white"/>
<path d="M71.9844 10.9518C73.3996 10.9518 74.1072 11.4274 74.1072 12.3786H74.2841V11.8436H74.6379C75.1096 13.2354 75.5224 15.1378 75.8762 17.5508H75.6993L75.8762 17.7291V19.3343H76.23L76.0531 19.5126V20.4044H76.23C76.6948 19.2224 77.6382 17.6172 79.0604 15.5889L79.2373 15.7673L79.591 15.2322H79.4142L79.0604 15.5889V15.4106L81.0062 13.2704H81.36L82.0676 13.9838L81.1831 15.0539H81.7138C81.7138 14.6832 82.0676 14.267 82.7752 13.8054V14.3405C82.3035 14.3964 82.0676 14.5748 82.0676 14.8755H82.4214C82.4214 14.5188 82.5983 14.3405 82.9521 14.3405V14.8755C82.3486 15.2322 81.4641 16.3023 80.2986 18.0858L76.5838 24.8631H76.23L76.0531 24.6848C75.6993 24.6848 75.5224 24.9226 75.5224 25.3982H75.1686C74.343 25.3982 73.9303 24.982 73.9303 24.1497L74.1072 23.6147L73.7534 23.9714V24.5064L73.9303 24.6848V24.8631L73.7534 25.0415H73.3996L73.2227 24.1497L73.3996 23.6147H73.2227L73.3996 23.4363V22.3662C73.2539 15.8267 72.8411 12.557 72.1613 12.557L72.3382 12.0219L71.9844 10.9518ZM80.4755 13.092V13.2704L79.768 13.9838H79.591C79.8685 13.4662 80.1634 13.169 80.4755 13.092ZM79.2373 14.3405V14.5188L77.6452 16.659V16.4807C77.9157 15.8092 78.4464 15.0958 79.2373 14.3405ZM80.6524 15.4106L80.1217 16.3023H80.2986L80.8293 15.5889V15.4106H80.6524ZM73.5765 16.3023V17.1941H73.7534V16.3023H73.5765ZM77.1145 17.1941H77.2914V17.7291L77.1145 17.9075H76.9376V17.7291L77.1145 17.1941ZM73.7534 17.7291V19.691H73.9303V17.7291H73.7534ZM76.9376 17.9075V18.0858L76.4069 18.7992V18.6209L76.9376 17.9075ZM77.2914 21.4745V21.6528L77.8221 21.1178V20.9394L77.2914 21.4745ZM76.4069 22.9013L76.5838 23.0796H76.7607L77.1145 22.0095C76.8717 22.0655 76.6358 22.3627 76.4069 22.9013Z" fill="white"/>
<path d="M89.9969 10.165C90.0732 10.5217 90.5449 10.7 91.4121 10.7L92.8273 16.9423H94.0656V17.1206L93.0042 17.299V17.4773C93.358 17.4773 93.5349 17.5962 93.5349 17.834H94.9501V18.0124C94.9501 18.2782 94.3604 18.516 93.1811 18.7258L93.5349 19.7959L93.358 20.3309L93.5349 21.401L93.358 21.5794H93.5349L93.358 21.7577L93.5349 23.8979V24.968L93.358 24.7897H93.1811L93.7118 27.4649H93.358C93.358 27.1082 93.24 26.9299 93.0042 26.9299V27.1082L93.1811 27.6433H93.0042L92.8273 27.4649H92.6504C92.6504 27.8216 92.5324 28 92.2966 28L91.4121 24.968H91.2352V25.6814H91.0583L90.7045 23.5412L91.2352 23.8979V23.7196C91.1381 22.6495 90.9612 22.1144 90.7045 22.1144L90.8814 21.9361V21.401H90.5276V21.9361H90.3507V21.2227L90.5276 21.0443H90.3507L90.1738 21.2227V20.5093H90.3507L90.5276 20.6876H90.7045L90.5276 20.5093V19.4392L86.6358 20.3309V20.6876L87.8741 20.3309L88.5817 20.5093L89.4662 20.3309V20.6876C86.9896 21.1353 85.7513 21.7298 85.7513 22.4711C85.4391 23.779 85.0853 24.6113 84.6899 24.968V25.3247H84.1592L83.9823 25.1464H83.8054V25.3247L83.2747 24.968L83.6285 23.8979H83.4516C83.0978 23.8979 82.9209 24.3735 82.9209 25.3247L82.5671 24.968L82.744 23.8979L82.2133 23.3629L85.2206 16.0505H85.3975C85.3975 16.4072 85.5154 16.5856 85.7513 16.5856L85.9282 15.6938L85.7513 15.8722H85.5744V15.1588L85.7513 14.267L85.9282 14.4454H86.1051L85.9282 14.267V14.0887L86.282 13.3753H86.4589L86.6358 13.5536H86.8127V13.3753C86.8127 13.1375 86.6358 13.0186 86.282 13.0186L87.1665 10.5217H87.8741L87.6972 10.7V10.8784C88.5158 10.4028 89.2823 10.165 89.9969 10.165ZM88.9355 14.267L87.5203 18.0124H87.8741C89.0534 18.0124 89.702 17.6557 89.82 16.9423L89.1124 14.267H88.9355ZM87.3434 15.3371L86.9896 16.5856L86.8127 16.4072H86.6358L86.8127 17.1206H86.9896L87.5203 15.5155V15.3371H87.3434ZM85.3975 16.9423L85.2206 17.1206V17.4773H85.3975L85.5744 16.9423H85.3975ZM86.4589 17.6557L86.282 18.3691H86.4589L86.6358 18.1907V17.6557H86.4589ZM84.8668 17.834L84.6899 18.5474H84.8668L85.2206 17.834H84.8668ZM87.8741 18.3691V18.5474H88.2279C89.2893 18.4285 89.82 18.2502 89.82 18.0124H89.6431L87.8741 18.3691ZM90.3507 22.2928H90.7045V23.3629H90.5276L90.3507 22.2928ZM92.8273 23.5412V23.8979L93.0042 24.6113H93.1811V24.2546L93.0042 23.5412H92.8273ZM91.0583 24.0763V24.433L91.589 24.2546V23.8979L91.0583 24.0763Z" fill="white"/>
<path d="M99.1956 10.8889H101.318C103.795 11.3575 105.033 12.4276 105.033 14.0992V15.1693L103.264 17.6662H103.441L105.21 16.061V16.4177C104.607 17.7746 103.84 18.6663 102.911 19.093L101.849 19.4497V20.1631C102.106 20.1631 103.344 21.7088 105.564 24.8002C106.036 24.996 106.507 25.4716 106.979 26.227V26.4053L106.095 25.6919V25.8703C106.684 26.4998 106.979 26.9754 106.979 27.2971H106.802L105.918 27.8321H105.741L105.387 27.2971L105.21 27.4754H105.033C102.675 25.5311 101.024 23.5692 100.08 21.5899L99.1956 19.8064C98.7794 19.8064 98.5435 20.5198 98.488 21.9466C98.5643 23.1356 98.5054 23.8595 98.3111 24.1183C97.9643 24.405 97.9053 24.6918 98.1342 24.9785V25.3352H97.6035C97.3677 25.3352 97.2497 25.0974 97.2497 24.6218H97.0728C97.0728 25.0974 96.8509 25.2758 96.4069 25.1569L95.6264 24.1078L95.8345 22.4816V21.7682L96.8959 16.7744H97.0728V17.4878H97.2497L98.1342 13.7425C97.8984 13.7425 97.7804 13.9803 97.7804 14.4559H97.6035V14.0992H96.5421V13.9208C96.5421 13.683 96.8959 13.5047 97.6035 13.3858V13.2074H97.2497L96.1883 13.5641H96.0115C96.0115 13.3263 96.2473 13.2074 96.719 13.2074V13.0291C96.2473 13.0291 96.0115 12.8507 96.0115 12.494L99.1956 10.8889ZM99.3725 17.3095H99.5494C101.402 16.4142 102.699 15.463 103.441 14.4559V14.0992C103.441 13.6935 102.734 13.2774 101.318 12.8507L100.257 13.2074L99.3725 17.3095ZM102.911 12.8507C103.146 13.3893 103.382 13.6865 103.618 13.7425V13.3858L102.911 12.8507ZM103.972 13.9208L103.795 14.8126H103.972L104.149 14.6342V13.9208H103.972ZM97.4266 14.4559H97.6035V14.9909L97.4266 15.7043H97.2497V15.1693L97.4266 14.4559ZM103.441 15.1693L102.557 16.4177H102.734L103.618 15.3476V15.1693H103.441ZM105.21 15.526H105.564L105.387 16.061H105.21V15.526ZM97.0728 16.061H97.2497V16.7744H97.0728V16.061ZM96.719 18.3796V19.093H96.8959V18.3796H96.719ZM102.026 23.7301V23.9084L102.734 24.6218C102.505 24.0833 102.269 23.786 102.026 23.7301ZM102.911 24.9785V25.1569L103.618 25.6919V25.5136L102.911 24.9785Z" fill="white"/>
<path d="M109.612 11.0672L110.85 12.1373C110.85 11.7806 110.968 11.6023 111.204 11.6023H111.381L113.857 18.0229V18.3796H113.681L113.327 17.3095H113.15V17.6662L114.388 20.6981H114.565C115.037 17.6067 115.717 14.3789 116.605 11.0148L117.135 11.3715L117.666 11.1931L118.727 11.7282V11.9065C118.374 11.9065 118.197 12.1443 118.197 12.6199H118.374L118.55 12.7983H118.727L118.904 11.9065H119.258V12.0849L119.081 12.2632L119.258 12.4416V12.6199C118.37 15.3686 117.572 19.3098 116.865 24.4435H116.511L116.865 21.5899C116.629 21.5899 116.275 22.7194 115.803 24.9785C115.366 25.3352 114.954 25.5136 114.565 25.5136V25.8703H114.388C114.388 25.6325 114.152 25.5136 113.681 25.5136V24.2651C113.681 23.7266 112.501 20.7541 110.143 15.3476H109.966C109.494 17.4669 109.081 20.3205 108.727 23.9084L108.55 23.7301C107.843 23.9399 107.489 24.2372 107.489 24.6218H107.135C106.899 24.1742 106.781 23.4014 106.781 22.3033H106.605V23.9084H106.251L106.074 23.0167C106.074 19.7854 106.781 15.8617 108.197 11.2456L109.612 11.0672ZM107.135 15.526V15.7043L107.312 15.8827L107.135 16.061V16.4177H107.312L107.489 15.7043L107.312 15.526H107.135ZM113.857 18.3796C114.163 18.3796 114.399 18.8552 114.565 19.8064V19.9847H114.388L113.857 18.3796Z" fill="white"/>
<path d="M125.054 10.721C125.366 10.9588 126.358 11.0777 128.03 11.0777L128.02 11.2561H126.781L126.771 11.4344C128.249 11.4344 129.171 11.7911 129.539 12.5045L129.518 12.8612H128.634L128.623 13.0396L129.851 13.2179L129.841 13.3963H128.779L128.769 13.5746C129.123 13.5746 129.293 13.6935 129.279 13.9313C127.177 13.9313 125.3 14.7042 123.649 16.2499L123.639 16.4282C125.921 17.0437 127.728 18.4111 129.06 20.5303L129.05 20.7086C128.62 22.2473 127.416 23.6741 125.439 24.989L124.357 25.1674L124.347 25.3457H124.7C124.686 25.6675 123.604 26.0242 121.454 26.4158L121.475 26.0591H122.359L122.38 25.8808C121.624 25.8808 120.94 25.4646 120.33 24.6323C119.803 24.3596 119.539 23.8385 119.539 23.0691C119.539 22.9992 119.542 22.9258 119.549 22.8488L120.101 22.4921L120.611 22.8488H120.965C124.294 22.3243 126.011 21.2542 126.116 19.6385C124.721 18.9251 123.798 18.5684 123.348 18.5684L123.337 18.7468L121.599 18.0334L121.766 18.2117L121.755 18.5684C120.285 17.4773 119.567 16.645 119.601 16.0715L120.985 13.5746L121.912 12.8612L121.891 13.2179L125.054 10.721ZM122.64 15.5365L122.63 15.7148L125.751 13.753L127.187 13.3963L127.208 13.0396H126.854C124.988 13.739 123.583 14.5713 122.64 15.5365ZM123.618 22.8488H123.795L124.17 22.4921H123.993L123.618 22.8488ZM126.802 22.8488L126.043 23.7406H126.22L126.979 22.8488H126.802ZM124.586 24.2756V24.454H124.763L125.502 23.9189L124.586 24.2756ZM122.578 25.5241L122.567 25.7024H123.275L124.17 25.5241V25.3457H123.993L122.578 25.5241Z" fill="white"/>
<path d="M142.442 10.4273L142.421 10.784H141.891L141.88 10.9623H142.057L145.429 10.784H146.136L146.126 10.9623L145.762 11.319L145.928 11.4974L145.918 11.8541C145.897 12.4696 145.706 12.8263 145.345 12.9242L145.512 13.4592L145.304 13.9943L145.137 13.8159H144.96C143.309 13.8999 142.48 14.0188 142.473 14.1726L142.297 13.9943C140.278 14.316 139.255 14.9105 139.227 15.7778L139.175 17.2046L143.431 16.8479L143.608 17.0262L143.597 17.2046H142.713L142.702 17.3829C143.292 17.3829 143.58 17.5018 143.566 17.7396V17.918C143.545 18.5125 143.417 18.8097 143.181 18.8097H142.12L142.109 18.9881H143.348L143.337 19.3448C143.33 19.5476 141.839 19.9638 138.863 20.5932L138.613 22.5551L138.79 22.7334V22.9118L138.603 23.0901L138.592 23.2685L138.748 23.8035H138.571L138.727 24.3386C138.769 24.8421 138.356 25.7654 137.489 27.1082L136.074 26.9299L136.313 25.1464C135.862 25.1464 135.637 24.9261 135.637 24.4854V24.433C135.817 24.1322 136.032 22.2578 136.282 18.8097H136.636L136.469 18.6314L136.698 17.2046L136.865 17.3829H137.042L137.291 15.5994L137.323 14.886C136.733 14.886 136.438 14.7671 136.438 14.5293L136.813 13.9943C136.341 13.9943 136.116 13.8159 136.136 13.4592C136.171 12.3891 136.365 11.8541 136.719 11.8541C137.309 11.8541 137.614 11.5568 137.635 10.9623H137.812L137.978 11.1407L138.353 10.784H138.883L139.393 11.319L142.442 10.4273ZM142.931 11.319L142.921 11.4974H143.452L145.408 11.319V11.1407H144.347L142.931 11.319ZM141.266 13.2809V13.4592H141.443L144.981 13.1025L144.992 12.9242L144.471 12.7458L144.284 12.9242H144.107L143.941 12.7458L141.266 13.2809ZM136.573 20.4149L136.501 22.3767H136.677L136.75 20.4149H136.573ZM136.834 25.5031L136.802 26.2165H136.979L137.01 25.5031H136.834Z" fill="white"/>
<path d="M149.373 10.8889H151.495C153.972 11.3575 155.21 12.4276 155.21 14.0992V15.1693L153.441 17.6662H153.618L155.387 16.061V16.4177C154.784 17.7746 154.017 18.6663 153.087 19.093L152.026 19.4497V20.1631C152.283 20.1631 153.521 21.7088 155.741 24.8002C156.213 24.996 156.684 25.4716 157.156 26.227V26.4053L156.272 25.6919V25.8703C156.861 26.4998 157.156 26.9754 157.156 27.2971H156.979L156.095 27.8321H155.918L155.564 27.2971L155.387 27.4754H155.21C152.852 25.5311 151.2 23.5692 150.257 21.5899L149.373 19.8064C148.956 19.8064 148.72 20.5198 148.665 21.9466C148.741 23.1356 148.682 23.8595 148.488 24.1183C148.141 24.405 148.082 24.6918 148.311 24.9785V25.3352H147.78C147.545 25.3352 147.427 25.0974 147.427 24.6218H147.25C147.25 25.0974 147.028 25.2758 146.584 25.1569L145.803 24.1078L146.011 22.4816V21.7682L147.073 16.7744H147.25V17.4878H147.427L148.311 13.7425C148.075 13.7425 147.957 13.9803 147.957 14.4559H147.78V14.0992H146.719V13.9208C146.719 13.683 147.073 13.5047 147.78 13.3858V13.2074H147.427L146.365 13.5641H146.188C146.188 13.3263 146.424 13.2074 146.896 13.2074V13.0291C146.424 13.0291 146.188 12.8507 146.188 12.494L149.373 10.8889ZM149.549 17.3095H149.726C151.579 16.4142 152.876 15.463 153.618 14.4559V14.0992C153.618 13.6935 152.911 13.2774 151.495 12.8507L150.434 13.2074L149.549 17.3095ZM153.087 12.8507C153.323 13.3893 153.559 13.6865 153.795 13.7425V13.3858L153.087 12.8507ZM154.149 13.9208L153.972 14.8126H154.149L154.326 14.6342V13.9208H154.149ZM147.604 14.4559H147.78V14.9909L147.604 15.7043H147.427V15.1693L147.604 14.4559ZM153.618 15.1693L152.734 16.4177H152.911L153.795 15.3476V15.1693H153.618ZM155.387 15.526H155.741L155.564 16.061H155.387V15.526ZM147.25 16.061H147.427V16.7744H147.25V16.061ZM146.896 18.3796V19.093H147.073V18.3796H146.896ZM152.203 23.7301V23.9084L152.911 24.6218C152.682 24.0833 152.446 23.786 152.203 23.7301ZM153.087 24.9785V25.1569L153.795 25.6919V25.5136L153.087 24.9785Z" fill="white"/>
<path d="M159.185 11.0043L159.539 11.5393L159.362 12.4311L159.539 12.6094H159.716L159.893 11.7177H160.247L160.424 12.2527C159.48 15.6799 159.008 18.3551 159.008 20.2785C159.126 21.5864 159.362 22.2403 159.716 22.2403L163.785 17.6032L163.962 16.7115V11.7177L164.315 11.361C164.551 11.361 164.669 11.5988 164.669 12.0744H164.846C164.846 11.5988 165.141 11.361 165.73 11.361L166.084 12.0744L165.907 12.9661C166.143 12.9661 166.261 12.6689 166.261 12.0744H166.615L166.792 12.2527H166.969L166.084 25.0939L165.907 25.8073C165.436 25.8073 165.2 26.0451 165.2 26.5207H164.492L164.669 24.7372H164.315V25.8073L163.785 26.3424V26.164L163.962 24.3805C163.608 24.3805 163.431 24.1427 163.431 23.6671H163.254L160.247 25.0939L158.831 24.7372V24.9156C157.61 24.9156 156.785 23.1321 156.355 19.5651C156.827 14.2146 157.298 11.5393 157.77 11.5393V11.361H157.947V12.0744H157.593V12.4311L157.77 12.6094V12.7878H157.593L157.77 13.3228L157.239 14.2146H157.416L157.593 14.0362L157.062 17.2465V17.9599H157.239C157.614 13.3228 158.263 11.0043 159.185 11.0043ZM157.062 18.1383L156.886 18.3166V19.7434H157.062L157.239 18.1383H157.062ZM162.546 19.5651L161.308 20.9919H161.485L162.723 19.5651H162.546ZM157.416 22.4187V22.7754L157.593 23.3104H157.77V22.9537L157.593 22.4187H157.416ZM158.655 23.3104V23.4888C158.655 23.9014 159.185 24.2581 160.247 24.5589H160.6V24.3805C159.921 24.3735 159.272 24.0168 158.655 23.3104Z" fill="white"/>
<path d="M177.364 10.4168L177.541 10.5951V10.7735L177.364 10.9518L177.187 10.7735H177.01L175.418 11.8436H175.241C175.241 11.5288 175.949 11.0532 177.364 10.4168ZM170.465 10.7735L170.642 12.3786C170.878 12.3786 171.055 12.0219 171.173 11.3085H171.35L171.527 12.0219L170.996 14.8755L172.942 13.4487H173.119L170.996 15.4106V15.5889L175.065 12.557L175.241 12.7353C176.83 11.4274 177.891 10.7735 178.426 10.7735H178.603L178.779 11.4869L177.364 12.9137H177.541C177.777 12.4381 178.131 12.2003 178.603 12.2003L178.779 12.3786V12.2003L178.603 12.0219L178.779 11.8436H179.31L179.487 12.3786C178.599 12.7983 176.535 14.344 173.296 17.0157C174.093 18.7713 175.508 21.1493 177.541 24.1497V24.5064L177.364 25.7549L177.187 25.5765H177.01L176.834 26.2899H176.126V25.9332H175.949V26.2899H175.595C175.595 25.8703 174.298 23.6706 171.703 19.691L171.35 18.6209L170.465 18.7992C170.313 21.6598 169.941 23.4433 169.352 24.1497V24.3281L167.583 24.1497V23.6147L167.76 22.3662C167.406 22.3662 167.229 22.0095 167.229 21.2961C167.423 20.1071 167.617 19.5126 167.812 19.5126L167.635 19.3343C167.989 16.061 168.342 14.0992 168.696 13.4487L168.519 12.9137L169.05 11.4869V11.3085L168.873 11.1302V10.9518H169.227V12.2003H169.404L169.581 11.6652L169.404 11.4869V11.3085C169.522 10.9518 169.875 10.7735 170.465 10.7735ZM175.065 11.8436H175.241L174.534 12.557H174.357L175.065 11.8436ZM169.05 12.7353L168.873 13.8054V14.5188H169.05L169.227 12.9137V12.7353H169.05ZM174.18 12.557H174.357L173.296 13.4487H173.119L174.18 12.557ZM176.48 13.2704L175.772 13.8054L175.595 13.9838V14.1621H175.772L176.48 13.6271L176.657 13.4487V13.2704H176.48ZM173.472 23.4363H173.649L174.18 23.9714H174.003L173.472 23.4363ZM174.18 23.9714C174.478 23.9714 174.773 24.5659 175.065 25.7549V25.9332H174.888L174.18 23.9714Z" fill="white"/>
<path d="M189.362 10.6581L189.893 10.8364V11.1931H189.362L189.716 11.7282C189.459 12.3227 188.516 12.6199 186.886 12.6199L185.647 12.7983L185.47 13.3333H185.647C185.293 14.1796 184.586 17.9844 183.524 24.7477L184.055 27.0663H183.878C183.615 27.0663 183.379 26.4718 183.171 25.2828L183.348 23.4993V23.3209H183.171V23.6776C182.817 23.6776 182.64 23.7965 182.64 24.0343V24.2127L182.994 27.0663V27.2446H182.64L181.932 26.7096L181.755 26.8879H181.579C181.107 25.8598 180.871 24.968 180.871 24.2127L181.048 24.391H181.225L180.871 23.1426L181.402 22.9642V22.0725H181.048V21.8941C181.402 21.8941 181.579 21.7752 181.579 21.5374V21.3591H181.225C181.225 20.4079 181.402 19.9323 181.755 19.9323V17.6137C181.943 17.4459 182.179 16.1974 182.463 13.8684L181.225 14.0467L178.748 13.8684V13.69L179.633 13.5117V13.69L179.81 13.5117H182.463V12.9766L179.633 13.3333L179.456 13.155H179.279L178.217 13.3333L177.687 12.9766L177.864 12.0849L177.687 11.9065C177.687 11.312 178.394 11.0148 179.81 11.0148L189.362 10.6581ZM188.301 11.1931V11.3715H189.008V11.1931H188.301ZM181.755 21.1807L181.402 25.1044H181.755L181.579 24.2127V23.856L181.932 23.3209H181.755L181.932 23.1426V22.9642L181.755 22.7859V22.6075L182.109 21.8941L181.932 21.1807H181.755Z" fill="white"/>
<path d="M213.472 11.2771L213.629 11.4554H213.805L213.826 11.2771C215.776 11.7806 216.702 12.494 216.605 13.4173L216.834 14.4874H216.48C216.528 14.0118 216.435 13.774 216.199 13.774H216.022L216.116 14.6657L216.084 14.8441H215.73C215.495 14.8441 215.397 14.6657 215.439 14.309L215.241 14.4874H215.065C214.475 14.0118 213.909 13.774 213.368 13.774C212.189 13.774 210.819 15.0224 209.258 17.5193L208.696 19.4812C208.523 21.0618 209.168 22.1914 210.632 22.8698L210.59 23.2265H210.236L210.215 23.4049H210.569C211.409 23.4049 212.643 22.3348 214.274 20.1946L214.294 20.0162H214.118C213.181 21.1562 212.324 21.9885 211.547 22.5131H211.37L213.566 20.1946H212.328C212.356 19.9568 212.193 19.8379 211.839 19.8379L211.683 19.6595L211.703 19.4812C211.724 19.2434 212.331 19.065 213.524 18.9461L213.566 18.5894L213.368 18.7678H212.307L211.381 17.5193L211.579 17.341L211.589 17.1626L213.524 17.341L218.176 16.8059L218.197 16.6276C217.607 16.6276 217.326 16.5087 217.354 16.2709H217.531L217.687 16.4492L217.885 16.2709H218.061C219.317 16.6346 219.931 16.9318 219.903 17.1626L219.893 17.341L219.695 17.5193L219.674 17.6977H220.382L220.34 18.0544H220.163L217.302 18.4111L217.281 18.5894H217.458L219.071 18.4111L219.029 18.7678C217.85 18.7678 217.208 19.2434 217.104 20.1946L216.261 23.0482L216.428 23.2265L216.407 23.4049L216.126 24.2966L216.157 25.7234L215.772 26.0801L215.918 26.2585C215.432 26.4123 215.169 26.7096 215.127 27.1502H214.596C214.36 27.1502 214.298 26.6152 214.409 25.5451H214.232L214.097 26.7935H213.566L213.66 25.9018L213.618 24.6533H213.264C212.591 25.1289 211.915 25.3667 211.235 25.3667H210.351L210.049 25.01L210.059 24.8317H210.413L210.434 24.6533C207.985 24.6533 206.66 23.821 206.459 22.1564C206.32 21.3871 206.251 20.6177 206.251 19.8483C206.251 19.3727 206.279 18.8937 206.334 18.4111L206.365 18.0544C206.469 17.1451 206.892 15.9561 207.635 14.4874H207.812L207.77 14.8441L207.104 16.0925L207.094 16.2709H207.271C207.388 15.1868 208.537 13.8194 210.715 12.1688H210.892L210.913 11.9905H210.736L210.184 12.1688C210.531 11.5743 211.627 11.2771 213.472 11.2771ZM209.82 12.3472H209.997L208.623 13.5956L208.644 13.4173L209.82 12.3472ZM212.421 12.7039L212.411 12.8822H213.649L213.66 12.7039H212.421ZM208.623 13.5956L208.592 13.774L207.812 14.4874L207.832 14.309L208.623 13.5956ZM216.449 16.4492H217.156L216.761 16.8059L216.449 16.4492ZM211.194 22.5131H211.37L210.985 22.8698H210.809L211.194 22.5131ZM212.057 24.2966L213.556 23.5832L213.597 23.2265H213.42L212.057 24.2966ZM210.767 24.8317L210.757 25.01H211.641L211.651 24.8317H210.767Z" fill="white"/>
<path d="M222.484 10.8889H224.607C227.083 11.3575 228.322 12.4276 228.322 14.0992V15.1693L226.553 17.6662H226.729L228.498 16.061V16.4177C227.895 17.7746 227.128 18.6663 226.199 19.093L225.137 19.4497V20.1631C225.394 20.1631 226.632 21.7088 228.852 24.8002C229.324 24.996 229.796 25.4716 230.267 26.227V26.4053L229.383 25.6919V25.8703C229.973 26.4998 230.267 26.9754 230.267 27.2971H230.091L229.206 27.8321H229.029L228.675 27.2971L228.498 27.4754H228.322C225.963 25.5311 224.312 23.5692 223.368 21.5899L222.484 19.8064C222.068 19.8064 221.832 20.5198 221.776 21.9466C221.853 23.1356 221.794 23.8595 221.599 24.1183C221.253 24.405 221.194 24.6918 221.422 24.9785V25.3352H220.892C220.656 25.3352 220.538 25.0974 220.538 24.6218H220.361C220.361 25.0974 220.139 25.2758 219.695 25.1569L218.915 24.1078L219.123 22.4816V21.7682L220.184 16.7744H220.361V17.4878H220.538L221.422 13.7425C221.187 13.7425 221.069 13.9803 221.069 14.4559H220.892V14.0992H219.83V13.9208C219.83 13.683 220.184 13.5047 220.892 13.3858V13.2074H220.538L219.477 13.5641H219.3C219.3 13.3263 219.536 13.2074 220.007 13.2074V13.0291C219.536 13.0291 219.3 12.8507 219.3 12.494L222.484 10.8889ZM222.661 17.3095H222.838C224.69 16.4142 225.987 15.463 226.729 14.4559V14.0992C226.729 13.6935 226.022 13.2774 224.607 12.8507L223.545 13.2074L222.661 17.3095ZM226.199 12.8507C226.435 13.3893 226.67 13.6865 226.906 13.7425V13.3858L226.199 12.8507ZM227.26 13.9208L227.083 14.8126H227.26L227.437 14.6342V13.9208H227.26ZM220.715 14.4559H220.892V14.9909L220.715 15.7043H220.538V15.1693L220.715 14.4559ZM226.729 15.1693L225.845 16.4177H226.022L226.906 15.3476V15.1693H226.729ZM228.498 15.526H228.852L228.675 16.061H228.498V15.526ZM220.361 16.061H220.538V16.7744H220.361V16.061ZM220.007 18.3796V19.093H220.184V18.3796H220.007ZM225.314 23.7301V23.9084L226.022 24.6218C225.793 24.0833 225.557 23.786 225.314 23.7301ZM226.199 24.9785V25.1569L226.906 25.6919V25.5136L226.199 24.9785Z" fill="white"/>
<path d="M237.229 10.9308C238.616 10.9308 239.914 11.347 241.121 12.1793L240.944 12.3576V12.536L241.651 13.6061H241.298L241.121 13.4277H240.944L241.475 17.3514H241.651C241.651 16.7569 241.769 16.4597 242.005 16.4597V17.1731C242.005 17.8445 241.416 19.3902 240.236 21.8102H240.413C239.581 22.9642 238.342 24.0343 236.698 25.0205L235.814 25.1988H235.637C232.834 25.1988 231.065 24.0693 230.33 21.8102L229.622 20.7401L229.799 20.5617L229.622 19.3133V18.9566C229.622 17.9704 230.566 16.2464 232.453 13.7844V13.9628C231.585 15.1378 230.878 16.4457 230.33 17.8865V18.0648H230.507C230.937 16.3233 232.529 14.1237 235.283 11.4659L234.045 12.1793H233.868C233.868 11.6338 234.988 11.2176 237.229 10.9308ZM236.344 13.9628L236.168 13.7844V13.9628L236.344 14.1411L235.106 15.2112C234.128 15.2112 233.185 16.8758 232.276 20.205C232.276 21.1562 232.806 21.9886 233.868 22.702H234.045C235.335 22.702 236.809 21.3346 238.467 18.5999C239.057 17.299 239.352 16.3478 239.352 15.7463V14.3195C239.352 13.9908 238.762 13.753 237.583 13.6061H237.406L237.229 13.7844H237.052V13.6061L236.344 13.9628ZM241.475 14.4978H241.828V15.3896H241.475V14.4978ZM232.453 16.4597L231.922 17.5298H232.099L232.63 16.4597H232.453ZM239.352 17.5298L238.644 19.3133H239.175L239.706 18.0648L239.529 17.5298H239.352ZM240.59 18.2432L240.413 18.7782V19.1349H240.59L240.767 18.4215V18.2432H240.59ZM230.153 18.9566V20.3834H230.33V18.9566H230.153ZM238.467 19.4916L237.76 20.3834H237.937L238.644 19.4916H238.467ZM232.806 23.4153V23.5937L233.691 24.1287V23.9504L232.806 23.4153ZM240.85 5.99999L240.881 6.03147L241.048 5.99999H241.079L241.412 6.39866V6.50357C240.926 6.93721 240.684 7.182 240.684 7.23795H240.715C241.048 6.9512 241.315 6.78334 241.516 6.73438L241.683 7.0701L241.579 7.40581L241.62 7.37434H241.683L241.787 7.47925V7.51072C241.759 7.6646 241.447 8.04577 240.85 8.65426C240.677 8.87807 240.566 9.0914 240.517 9.29422L240.382 9.38865H240.351C240.254 9.38865 240.077 9.27674 239.82 9.05293C239.744 9.05293 239.688 8.94102 239.653 8.71721C239.542 8.56334 239.452 8.4864 239.383 8.4864C239.071 8.14369 238.915 7.86393 238.915 7.64711V7.61564C239.789 6.69241 240.378 6.17485 240.684 6.06294L240.85 5.99999ZM237.021 6.04196C237.291 6.05595 237.427 6.08742 237.427 6.13638L237.385 6.17835V6.20982C237.468 6.20982 237.569 6.27626 237.687 6.40915V6.51406C237.624 6.584 237.482 6.66094 237.26 6.74487C236.83 6.98966 236.584 7.16801 236.521 7.27992H236.553C237.066 6.90224 237.499 6.7134 237.853 6.7134L237.989 6.97567C238.016 6.97567 238.037 7.05611 238.051 7.21697C238.141 7.21697 238.186 7.31839 238.186 7.52122C237.451 7.98283 237.042 8.31855 236.958 8.52837C236.868 8.54236 236.757 8.75218 236.625 9.15784L236.261 9.26275C235.88 9.02495 235.689 8.79065 235.689 8.55984C235.654 8.55984 235.623 8.50389 235.595 8.39198C235.443 8.39198 235.252 8.18915 235.023 7.78349L234.992 7.47925C235.526 6.74487 236.136 6.27626 236.823 6.07343L237.021 6.04196Z" fill="white"/>
<path d="M245.907 11.0672L247.146 12.1373C247.146 11.7806 247.264 11.6023 247.499 11.6023H247.676L250.153 18.0229V18.3796H249.976L249.622 17.3095H249.445V17.6662L250.684 20.6981H250.861C251.332 17.6067 252.012 14.3789 252.9 11.0148L253.431 11.3715L253.962 11.1931L255.023 11.7282V11.9065C254.669 11.9065 254.492 12.1443 254.492 12.6199H254.669L254.846 12.7983H255.023L255.2 11.9065H255.554V12.0849L255.377 12.2632L255.554 12.4416V12.6199C254.666 15.3686 253.868 19.3098 253.16 24.4435H252.806L253.16 21.5899C252.924 21.5899 252.571 22.7194 252.099 24.9785C251.662 25.3352 251.249 25.5136 250.861 25.5136V25.8703H250.684C250.684 25.6325 250.448 25.5136 249.976 25.5136V24.2651C249.976 23.7266 248.797 20.7541 246.438 15.3476H246.261C245.789 17.4669 245.377 20.3205 245.023 23.9084L244.846 23.7301C244.138 23.9399 243.785 24.2372 243.785 24.6218H243.431C243.195 24.1742 243.077 23.4014 243.077 22.3033H242.9V23.9084H242.546L242.369 23.0167C242.369 19.7854 243.077 15.8617 244.492 11.2456L245.907 11.0672ZM243.431 15.526V15.7043L243.608 15.8827L243.431 16.061V16.4177H243.608L243.785 15.7043L243.608 15.526H243.431ZM250.153 18.3796C250.458 18.3796 250.694 18.8552 250.861 19.8064V19.9847H250.684L250.153 18.3796Z" fill="white"/>
<path d="M266.469 10.6581L267 10.8364V11.1931H266.469L266.823 11.7282C266.566 12.3227 265.623 12.6199 263.993 12.6199L262.754 12.7983L262.578 13.3333H262.754C262.401 14.1796 261.693 17.9844 260.632 24.7477L261.162 27.0663H260.985C260.722 27.0663 260.486 26.4718 260.278 25.2828L260.455 23.4993V23.3209H260.278V23.6776C259.924 23.6776 259.747 23.7965 259.747 24.0343V24.2127L260.101 27.0663V27.2446H259.747L259.04 26.7096L258.863 26.8879H258.686C258.214 25.8598 257.978 24.968 257.978 24.2127L258.155 24.391H258.332L257.978 23.1426L258.509 22.9642V22.0725H258.155V21.8941C258.509 21.8941 258.686 21.7752 258.686 21.5374V21.3591H258.332C258.332 20.4079 258.509 19.9323 258.863 19.9323V17.6137C259.05 17.4459 259.286 16.1974 259.57 13.8684L258.332 14.0467L255.855 13.8684V13.69L256.74 13.5117V13.69L256.917 13.5117H259.57V12.9766L256.74 13.3333L256.563 13.155H256.386L255.325 13.3333L254.794 12.9766L254.971 12.0849L254.794 11.9065C254.794 11.312 255.502 11.0148 256.917 11.0148L266.469 10.6581ZM265.408 11.1931V11.3715H266.116V11.1931H265.408ZM258.863 21.1807L258.509 25.1044H258.863L258.686 24.2127V23.856L259.04 23.3209H258.863L259.04 23.1426V22.9642L258.863 22.7859V22.6075L259.216 21.8941L259.04 21.1807H258.863Z" fill="white"/>
<path d="M200.985 17.3651C201.112 18.2826 200.988 19.183 200.616 20.0662L200.496 19.9674L200.393 19.9856L199.837 20.5627L199.805 20.3288L199.893 20.1936L199.876 20.0766L197.651 20.8281L197.667 20.9451C198.012 20.8844 198.195 20.932 198.216 21.088L197.803 21.1608C197.414 21.2294 196.465 20.9972 194.955 20.4644L194.971 20.5813C194.227 20.1486 193.495 19.439 192.774 18.4524L192.59 17.8857L192.574 17.7687C192.319 15.9154 192.813 14.6303 194.055 13.9134L194.61 13.3362L194.73 13.435L195.437 13.1906L195.644 13.1541C196.215 13.0535 197.3 13.5014 198.898 14.4979L198.795 14.5161C198.035 14.0626 197.213 13.7282 196.328 13.5128L196.225 13.531L196.241 13.648C197.289 13.7547 198.708 14.583 200.499 16.1329L199.973 15.3869L199.957 15.2699C200.273 15.2142 200.616 15.9126 200.985 17.3651ZM199.148 17.0897L199.236 16.9545L199.132 16.9727L199.045 17.1079L198.312 16.3983C198.223 15.7514 197.173 15.2974 195.162 15.0363C194.611 15.1334 194.177 15.5693 193.86 16.344L193.876 16.461C193.993 17.3143 194.919 18.1496 196.655 18.9668C197.462 19.224 198.04 19.3218 198.388 19.2605L199.215 19.1148C199.406 19.0812 199.49 18.667 199.468 17.8722L199.452 17.7552L199.332 17.6564L199.316 17.5394L199.419 17.5212L199.148 17.0897ZM199.305 20.5368L199.337 20.7708L198.82 20.8618L198.788 20.6278L199.305 20.5368ZM197.348 14.771L196.68 14.5293L196.696 14.6462L197.364 14.888L197.348 14.771ZM197.355 19.4425L196.257 19.1566L196.306 19.5076L197.077 19.7311L197.371 19.5595L197.355 19.4425ZM197.054 20.3342L196.728 20.2718L196.522 20.3083L196.538 20.4252L196.967 20.4694L197.07 20.4512L197.054 20.3342ZM195.692 13.5051L194.865 13.6507L194.881 13.7677L195.708 13.6221L195.692 13.5051ZM196.138 19.0579L195.557 18.681L195.573 18.7979L196.154 19.1748L196.138 19.0579ZM193.35 15.715L193.247 15.7332L193.017 16.3727L193.12 16.3545L193.35 15.715Z" fill="white"/>
<path d="M197.467 23.7918L196.415 23.9296L196.283 24.3057L196.327 24.6316L197.39 24.4687L197.523 24.3684L197.467 23.7918ZM200.125 22.8265L200.302 22.6134L200.236 21.8613H195.064L194.876 22.0493L194.954 22.7889L194.633 23.2151L194.61 23.9296L194.976 23.9547L196.958 23.6163V23.6664L197.323 23.7667L199.184 23.4784L199.35 24.055L200.645 23.7291L200.679 23.0146L199.405 22.8265H200.125Z" fill="white"/>
<path fill-rule="evenodd" clip-rule="evenodd" d="M12.4273 8.32446C9.20665 6.86043 2.14772 11.9067 0.991019 15.5196C0.410453 17.3326 0.135327 19.8864 0.830974 22.0051C1.71999 24.7128 3.9299 26.9039 6.26894 28.0169C7.17735 28.4491 9.41794 29.5207 10.3692 29.7417C13.6006 30.4923 17.3133 30.7545 20.3211 27.9059C21.5588 26.7337 22.9386 23.9692 23.2772 22.4207C23.8237 19.9219 23.1621 16.9064 21.6702 15.0572C21.2461 13.6278 21.9107 13.9004 23.5053 10.4485C23.8229 9.76094 24.7749 7.94953 24.4024 6.51964C24.1512 5.55541 23.8454 4.55132 23.1592 3.85232C22.8274 3.51425 20.6746 2.51609 18.9746 2.72393C18.217 2.81653 16.1258 3.23146 14.5755 4.86712C13.7805 5.70591 13.314 6.98277 12.4273 8.32446Z" fill="#87E140"/>
<path fill-rule="evenodd" clip-rule="evenodd" d="M22.7101 3.52911C23.6836 2.18994 24.6064 0.81215 26.6558 0.294375C27.7511 -0.159847 26.4137 1.4923 27.8326 1.94343C25.2257 2.12216 24.7381 3.16392 23.6794 3.97303L22.7101 3.52911Z" fill="white"/>
<path fill-rule="evenodd" clip-rule="evenodd" d="M25.1824 2.83108C25.1824 2.83108 26.8514 3.07191 27.3823 3.60228C27.726 3.94575 27.9722 4.62252 28.3108 4.9703C28.8839 5.55898 29.5276 5.3468 30.1881 5.85265C31.0678 6.52646 31.5734 9.11773 31.5619 10.0968C31.5528 10.8643 31.2646 11.9998 30.7735 13.1464C29.927 15.1227 28.3872 17.132 27.3964 17.2091C26.728 15.6733 27.184 12.4845 25.5572 10.9488C24.8888 10.5641 26.881 6.33522 27.1771 5.32152C27.303 4.89055 26.8315 4.43329 26.4432 4.16442C25.9436 3.81843 24.3572 3.46798 24.3572 3.46798C24.5807 3.20839 24.8822 3.02028 25.1824 2.83108Z" fill="white"/>
<path fill-rule="evenodd" clip-rule="evenodd" d="M26.9745 0.000183105C25.0776 0.300872 23.6646 1.66541 22.6992 3.11351C20.6495 2.02345 18.0486 2.09966 16.0502 3.25163C14.0339 4.25707 13.0199 6.23093 11.8951 7.96077C9.30019 7.34409 6.81056 8.81783 4.86022 10.2228C2.47792 11.939 0.569024 14.3413 0.123223 17.1815C-0.390192 20.4542 0.709118 24.0558 3.26474 26.4341C5.14491 28.2944 7.47056 29.4647 9.97359 30.4182C13.2359 31.3116 17.4347 31.3645 20.1416 29.2196C22.1801 27.6042 23.1701 24.918 23.7381 22.5519C24.3551 19.9825 23.7515 17.149 22.1183 14.9625C21.7949 13.4374 23.5 12.2682 23.8629 10.8243C24.7175 9.21606 25.3855 7.33947 24.6088 5.58766C24.167 4.83321 23.6043 3.36298 25.126 3.99072C27.2001 4.16845 26.985 5.93505 26.1732 7.16991C25.8407 8.45861 24.6896 9.95603 25.4014 11.2238C26.1203 11.9348 26.5091 13.4543 26.605 14.599C26.8435 15.4867 26.5965 17.012 27.389 17.5268C29.1051 17.0996 29.7782 15.2772 30.5519 13.9773C31.501 12.1372 32.1217 10.0415 31.4323 8.0311C31.3392 6.38135 30.1239 5.29168 28.5299 4.83886C27.9987 3.78889 27.1645 2.82035 25.8028 2.72621C26.4436 2.2199 27.5295 2.58419 28.102 2.09844C28.2547 1.60343 27.2645 1.67821 27.4188 1.13339C27.3854 0.74045 27.6277 0.0810058 26.9745 0.000183105ZM26.8355 0.573985C26.6948 1.4108 27.5178 2.08221 26.1529 2.07787C25.7454 2.0557 25.3823 2.28534 25.0443 2.56869C24.5463 2.5884 24.4868 2.90686 24.385 3.15791C23.9927 3.49061 23.6189 3.69712 23.2254 3.38791C24.0797 2.13763 25.1936 0.922891 26.8355 0.573985ZM19.3774 2.90479C20.9757 2.97982 22.6477 3.75202 23.151 5.37312C23.7966 6.68121 23.8137 8.11699 23.162 9.42488C22.5705 11.0374 21.5325 12.2812 20.8233 13.8357C20.451 15.2599 21.9555 16.5302 22.3158 17.8483C22.9817 20.2837 22.7293 22.5929 21.5609 24.8625C20.4555 27.0098 18.8347 28.9337 16.2175 29.453C13.1713 30.0573 10.0356 29.5025 7.37335 28.1015C3.49717 26.5718 0.401718 22.8591 0.603603 18.9175C0.716244 16.7194 1.45698 14.2241 3.11034 12.5658C5.01583 10.6548 7.54816 8.84 10.4133 8.39021C11.1722 8.27107 11.8849 8.50241 12.379 8.62554C12.754 8.719 13.3372 9.06161 13.8237 9.24678C14.4865 9.49904 15.148 10.1046 15.3796 10.3719C15.6152 9.85318 14.5187 8.93183 14.0486 8.75001C13.3243 8.46985 13.364 8.02385 13.5839 7.40261C13.9586 6.34396 15.0565 3.97576 17.4279 3.28347C17.997 3.09081 18.7692 2.93742 19.3774 2.90479ZM25.3029 3.0275C25.3498 3.02905 25.404 3.03475 25.4658 3.04588C26.192 3.0977 26.799 3.39751 27.2369 3.88406C27.8477 4.56266 28.374 5.42106 29.2929 5.65105C30.1429 5.92002 30.638 6.67 30.8872 7.4287C30.5889 7.23117 30.1588 7.09417 29.8584 6.99985C29.4389 6.86815 28.9571 6.79417 28.5452 6.79576C28.4995 6.64631 28.4016 6.50477 28.3508 6.34415C28.2117 5.90447 28.034 5.2265 27.8581 5.1994C27.6909 5.24835 27.9997 6.03789 28.1172 6.40491C28.1599 6.54004 28.1452 6.68638 28.1839 6.81649C27.7231 6.8857 27.3445 7.10393 27.0152 7.36777C26.8245 7.52057 26.825 7.58042 26.6528 7.749C26.9643 6.94424 27.2414 6.2636 27.4476 5.39194C27.5001 4.99335 27.018 4.58805 26.7793 4.35584C26.222 3.81391 25.3581 3.72086 24.9784 3.42698C24.9818 3.2236 24.974 3.01657 25.3029 3.0275ZM28.627 7.05012C29.0829 7.05234 29.4918 7.11188 29.8729 7.28647C30.2338 7.45181 30.7999 7.68023 31.0414 7.84928C31.1462 8.30047 31.2193 8.8235 31.2701 9.27398C31.053 9.07782 30.5519 8.89379 30.3093 8.74792C30.1097 8.62788 29.9353 8.54438 29.7054 8.49787C29.5273 8.46185 29.3619 8.44573 29.1684 8.47465C29.076 8.13327 28.929 7.73911 28.759 7.40766C28.7253 7.34186 28.6668 7.16893 28.627 7.05012ZM28.2709 7.07334C28.3221 7.2322 28.384 7.43514 28.4404 7.54516C28.5996 7.85564 28.7282 8.23909 28.8154 8.56068C28.0847 8.74968 27.5025 9.11482 26.979 9.5379C26.5575 9.87855 26.3207 10.1167 25.9197 10.41C25.9852 9.73332 26.1618 9.15463 26.3786 8.5347C26.6484 8.17651 26.8641 7.84438 27.1838 7.58225C27.4968 7.3315 27.8742 7.12232 28.2709 7.07334ZM29.4649 8.72066C29.7059 8.73505 29.9297 8.82248 30.1585 8.96014C30.4728 9.14919 30.9886 9.50617 31.3026 9.80384C31.3205 9.95046 31.3673 10.193 31.3891 10.3279C31.3252 10.799 31.1518 11.3479 31.0264 11.8115C30.8323 11.5849 30.4737 11.1681 30.2742 11.0376C29.9538 10.828 29.629 10.7313 29.3078 10.7118C29.3687 10.0408 29.3516 9.37861 29.2173 8.73136C29.3023 8.71902 29.3846 8.71586 29.4649 8.72066ZM28.8754 8.80898C29.0025 9.4315 29.0161 10.0727 28.953 10.7302C28.4868 10.8103 28.0664 11.0685 27.6653 11.3842C27.3328 11.6459 27.1137 11.8238 26.8186 12.2163C26.6089 11.6548 26.4447 11.1717 26.0447 10.7881C26.5349 10.4565 26.6765 10.067 27.1386 9.69351C27.6411 9.28742 28.2313 8.98104 28.8754 8.80898ZM29.286 10.9762C29.5762 10.9887 29.858 11.0873 30.1465 11.3134C30.3427 11.4672 30.7047 11.9239 30.9119 12.2088C30.7188 12.8334 30.4769 13.3927 30.181 13.9843C30.1017 13.8879 29.7501 13.5751 29.6372 13.4781C29.4431 13.3113 29.2545 13.1988 28.8392 13.144C28.9259 12.8185 29.0086 12.4939 29.0791 12.1707C29.1621 11.7898 29.2389 11.3532 29.286 10.9762ZM28.9149 11.0165C28.8696 11.3574 28.8099 11.7592 28.7339 12.1078C28.6612 12.4409 28.5752 12.7773 28.4844 13.1155C28.1268 13.1321 27.8433 13.3611 27.5887 13.5908C27.4418 13.7234 27.4026 13.7176 27.271 13.8708C27.1466 13.4294 27.1119 13.0215 26.9912 12.6094C27.3039 12.1618 27.4661 11.8501 27.8046 11.5586C28.1525 11.2589 28.5359 11.1018 28.9149 11.0165ZM28.3939 13.4019C28.2197 14.0269 28.0339 14.7073 27.8574 15.3432C27.6286 15.327 27.5662 15.343 27.4202 15.4454C27.3909 15.0973 27.3268 14.5302 27.2977 14.1942C27.5021 13.9534 27.5601 13.8884 27.7625 13.7058C27.9538 13.5332 28.1904 13.4384 28.3939 13.4019ZM28.7559 13.3989C29.1324 13.4408 29.3789 13.543 29.5326 13.6751C29.6589 13.7836 29.9291 14.108 30.0547 14.2515C29.7497 14.8181 29.3669 15.4949 28.9758 16.0108C28.9425 15.9673 28.7295 15.6673 28.6886 15.6271C28.5709 15.5115 28.3778 15.482 28.1796 15.4368C28.3587 14.7953 28.5793 14.0382 28.7559 13.3989ZM27.7695 15.5999C27.691 15.892 27.5887 16.3778 27.5208 16.6708C27.4136 16.5455 27.4418 16.1071 27.3991 15.8437C27.3981 15.6934 27.4985 15.6694 27.5479 15.6273C27.6248 15.5619 27.6342 15.5983 27.7695 15.5999ZM28.1256 15.6852C28.2583 15.7131 28.3509 15.7686 28.4314 15.8477C28.4831 15.8985 28.7798 16.1653 28.8235 16.2353C28.7074 16.3796 28.4607 16.5123 28.3382 16.6515C28.2103 16.7483 27.8053 16.9664 27.7105 16.9901C27.7836 16.6731 28.0395 16.0033 28.1256 15.6852Z" fill="black"/>
<path d="M7.82228 10.185C8.65914 9.92017 10.2851 10.081 9.71251 10.8809C9.71251 10.8809 8.77554 11.6377 8.38183 12.0618C7.91065 12.5695 7.12737 13.5454 7.12737 13.5454C6.22839 14.2012 5.70961 13.5412 5.82971 12.9648C5.81696 12.3729 6.11725 11.3736 6.66595 10.9604C7.15672 10.5909 7.50661 10.2849 7.82228 10.185Z" fill="white"/>
<path fill-rule="evenodd" clip-rule="evenodd" d="M8.34322 25.9277C8.13826 25.749 7.68852 25.7831 7.79181 26.2819C7.78093 26.5838 7.81282 27.2214 8.34402 27.1636C8.49367 27.3256 7.92559 27.2893 7.70907 27.3247C7.54188 27.4855 7.34644 27.7183 7.73076 27.9544C7.90984 27.9504 8.15985 27.9848 8.32999 27.9383C8.56552 27.8741 8.67379 27.8509 8.92572 27.9459C9.13931 28.2065 9.27468 28.2149 9.58495 28.4504C9.82482 28.4115 10.1247 28.461 10.0998 28.0334C10.0035 27.7854 9.75073 27.645 9.55315 27.4667C9.52049 27.3145 9.80307 27.3478 9.92799 27.3234C10.4528 26.9671 9.96708 26.6117 9.72559 26.7645C9.55884 26.8151 9.21109 27.083 9.05875 26.954C8.20878 26.9388 8.4992 26.157 8.34322 25.9277Z" fill="black"/>
</svg>
