<svg width="90" height="92" viewBox="0 0 90 92" fill="none" xmlns="http://www.w3.org/2000/svg">
<ellipse cx="45" cy="45.9184" rx="45" ry="45.9184" fill="url(#paint0_linear_106_252)"/>
<path d="M57.2032 49.1872V64.9215C57.2032 65.0951 57.0587 65.2349 56.8793 65.2349H31.6843C31.5048 65.2349 31.3604 65.0951 31.3604 64.9215V49.1872" stroke="white" stroke-width="2"/>
<path d="M35.4213 65.1635L35.4213 54.0319C35.4213 53.867 35.5585 53.7343 35.729 53.7343H41.5744C41.7448 53.7343 41.882 53.867 41.882 54.0319V65.1635" stroke="white" stroke-width="2"/>
<path d="M53.0643 53.9724H46.3284C46.1495 53.9724 46.0045 54.1127 46.0045 54.2858V59.3141C46.0045 59.4872 46.1495 59.6275 46.3284 59.6275H53.0643C53.2432 59.6275 53.3882 59.4872 53.3882 59.3141V54.2858C53.3882 54.1127 53.2432 53.9724 53.0643 53.9724Z" stroke="white" stroke-width="2"/>
<path d="M51.9729 46.7103C52.2316 47.4923 52.7525 48.1908 53.438 48.6749C54.1235 49.159 54.9699 49.4261 55.8186 49.4261C56.6673 49.4261 57.5137 49.159 58.1992 48.6749C58.8847 48.1908 59.6643 47.5313 59.6643 46.7103V45.0042C59.6643 44.5586 59.5734 44.1174 59.3969 43.7058L56.9645 38.0346L56.6832 37.3789C56.6569 37.3174 56.6122 37.2648 56.555 37.2278C56.4977 37.1909 56.4304 37.1712 56.3616 37.1712L35.8705 37.186L32.2017 37.172C32.133 37.1717 32.0656 37.1912 32.0084 37.2281C31.9511 37.2649 31.9064 37.3174 31.8801 37.3789L30.5485 40.4834L29.1664 43.7058C28.9899 44.1174 28.899 44.5586 28.899 45.0042V46.7103C28.899 47.5314 29.6786 48.1908 30.3641 48.6749C31.0496 49.159 31.896 49.4261 32.7447 49.4261C33.5934 49.4261 34.4398 49.159 35.1253 48.6749C35.8108 48.1908 36.3317 47.4923 36.5904 46.7103" stroke="white" stroke-width="2"/>
<path d="M28.899 44.329H59.6643" stroke="white" stroke-width="2"/>
<path d="M38.1288 37.156L36.5905 44.329V46.7101" stroke="white" stroke-width="2"/>
<path d="M44.2817 37.156V46.7101" stroke="white" stroke-width="2"/>
<path d="M50.4347 37.156L51.9729 44.329V46.7101" stroke="white" stroke-width="2"/>
<path d="M44.2817 46.7101C44.5404 47.492 45.0613 48.1906 45.7468 48.6746C46.4322 49.1587 47.2787 49.4258 48.1274 49.4258C48.976 49.4258 49.8225 49.1587 50.508 48.6746C51.1935 48.1906 51.7144 47.492 51.973 46.7101" stroke="white" stroke-width="2"/>
<path d="M36.5905 46.7101C36.8492 47.492 37.3701 48.1906 38.0556 48.6746C38.741 49.1587 39.5875 49.4258 40.4362 49.4258C41.2848 49.4258 42.1313 49.1587 42.8168 48.6746C43.5022 48.1906 44.0232 47.492 44.2818 46.7101" stroke="white" stroke-width="2"/>
<g clip-path="url(#clip0_106_252)">
<path d="M43.8241 34.005C43.7151 34.005 43.6111 33.9632 43.5372 33.8896C43.3473 33.7007 38.8844 29.1972 38.8844 23.8335C38.8844 21.3367 41.1004 19.3054 43.8241 19.3054C46.5479 19.3054 48.7638 21.3367 48.7638 23.8335C48.7638 29.1972 44.3009 33.7007 44.111 33.8896C44.0372 33.9632 43.9332 34.005 43.8241 34.005ZM43.8241 20.0204C41.5304 20.0204 39.6644 21.7309 39.6644 23.8335C39.6644 28.1482 42.8398 32.0063 43.8241 33.0983C44.8084 32.0063 47.9839 28.1482 47.9839 23.8335C47.9839 21.7309 46.1178 20.0204 43.8241 20.0204ZM43.8241 26.3394C42.2951 26.3394 41.0514 25.1987 41.0514 23.7966C41.0514 22.3951 42.2951 21.2549 43.8241 21.2549C45.3531 21.2549 46.5969 22.3951 46.5969 23.7966C46.5969 25.1987 45.3531 26.3394 43.8241 26.3394ZM43.8241 21.9698C42.7253 21.9698 41.8313 22.7893 41.8313 23.7966C41.8313 24.8044 42.7253 25.6245 43.8241 25.6245C44.9229 25.6245 45.8169 24.8045 45.8169 23.7966C45.8169 22.7893 44.9229 21.9698 43.8241 21.9698Z" fill="white" stroke="white"/>
</g>
<defs>
<linearGradient id="paint0_linear_106_252" x1="88.3486" y1="48.7156" x2="-0.412842" y2="48.3027" gradientUnits="userSpaceOnUse">
<stop stop-color="#87E140"/>
<stop offset="1" stop-color="#AEE782"/>
</linearGradient>
<clipPath id="clip0_106_252">
<rect width="16.6391" height="15.2525" fill="white" transform="translate(35.5046 18.9908)"/>
</clipPath>
</defs>
</svg>
