<svg width="17" height="17" viewBox="0 0 17 17" fill="none" xmlns="http://www.w3.org/2000/svg">
<path d="M12.081 15.7817C10.7892 15.4201 9.96671 15.1096 8.85416 14.5633C6.8118 13.5603 4.87954 12.0785 3.47326 10.4368C2.33474 9.10768 1.61176 8.03109 0.885958 6.58389C0.483459 5.78134 0.442502 5.65101 0.410414 5.07096C0.377467 4.47533 0.392106 4.40015 0.647966 3.85106C1.2055 2.65453 2.07675 1.78461 3.21567 1.28736C3.89933 0.988871 4.09755 0.964898 4.26417 1.16056C4.41824 1.34152 5.82407 5.22836 5.82407 5.47337C5.82407 5.70049 5.67457 5.80395 4.85169 6.14624C4.21898 6.40944 4.00452 6.6281 4.14287 6.86887C4.18013 6.9337 5.76763 8.248 7.6706 9.78949C9.89367 11.5902 11.193 12.5922 11.3051 12.5922C11.5522 12.5922 11.7267 12.3867 11.7277 12.0947C11.7293 11.6377 11.8255 11.2491 11.9541 11.1806C12.0948 11.1057 12.3938 11.0715 14.4028 10.9003C16.3203 10.7368 16.498 10.7415 16.6385 10.9591C16.7014 11.0565 16.777 11.3862 16.8064 11.6918C16.9341 13.016 16.4065 14.2607 15.2897 15.2696C14.3324 16.1344 13.7013 16.2351 12.081 15.7817Z" fill="white"/>
<path d="M12.081 15.7817C9.45616 15.0471 7.25773 13.8899 5.23379 12.1777C3.46122 10.678 1.99001 8.78522 0.885958 6.5838C0.483459 5.78126 0.442502 5.65092 0.410414 5.07088C0.377467 4.47524 0.392106 4.40006 0.647966 3.85097C1.21008 2.6446 2.12712 1.74179 3.28037 1.25926C3.932 0.986604 4.10156 0.969588 4.26416 1.16053C4.41824 1.34149 5.82407 5.22833 5.82407 5.47334C5.82407 5.70046 5.67457 5.80392 4.85169 6.14621C4.21898 6.40941 4.00452 6.62807 4.14287 6.86884C4.18013 6.93367 5.76763 8.24796 7.6706 9.78946C9.89367 11.5902 11.193 12.5922 11.3051 12.5922C11.5624 12.5922 11.7268 12.3831 11.7273 12.0553C11.7279 11.6276 11.8703 11.1904 12.0244 11.1429C12.203 11.0879 15.7187 10.782 16.1716 10.782C16.6462 10.782 16.7626 10.9657 16.8025 11.7779C16.8307 12.3512 16.7452 12.9432 16.5395 13.5989C16.4188 13.9837 15.8053 14.8037 15.2897 15.2695C14.3324 16.1343 13.7013 16.235 12.0811 15.7816L12.081 15.7817Z" fill="white"/>
<path d="M12.081 15.7817C10.8111 15.4262 9.98218 15.1129 8.8542 14.5618C5.33685 12.8433 2.35366 9.78719 0.708364 6.2168C0.490669 5.74439 0.430429 5.50533 0.406653 5.01956C0.378392 4.44217 0.392449 4.38084 0.695267 3.7603C1.26646 2.58982 2.15522 1.72974 3.28021 1.25886C3.59104 1.12876 3.897 1.02232 3.96015 1.02232C4.20471 1.02232 4.40062 1.33168 4.70776 2.20288C4.88326 2.70068 5.20619 3.59885 5.42537 4.19881C5.83985 5.33332 5.89079 5.59257 5.7255 5.72605C5.67139 5.76974 5.3129 5.94127 4.92886 6.10721C4.21882 6.41402 4.00212 6.62384 4.14269 6.86843C4.17995 6.93326 5.76745 8.24755 7.67043 9.78904C11.2696 12.7046 11.4419 12.8194 11.6452 12.4395C11.69 12.3558 11.7269 12.1699 11.7271 12.0264C11.7278 11.6243 11.8742 11.1887 12.0243 11.1425C12.2028 11.0876 15.7185 10.7816 16.1714 10.7816C16.4517 10.7816 16.5468 10.8179 16.635 10.9587C16.8929 11.37 16.8546 12.6557 16.5584 13.5325C16.294 14.315 15.2243 15.4946 14.442 15.8662C13.8782 16.1341 13.2626 16.112 12.0809 15.7812L12.081 15.7817Z" fill="white"/>
<path d="M12.9468 16.0162C12.9035 16.0015 12.4608 15.8768 11.963 15.7391C7.14963 14.4078 3.10489 11.0684 0.914567 6.61656C0.470891 5.71493 0.43087 5.58995 0.405189 5.0258C0.378698 4.44392 0.393101 4.38122 0.695637 3.76127C1.24067 2.64439 2.02754 1.85428 3.10861 1.3383C3.73551 1.03911 4.01292 0.983457 4.19701 1.11998C4.35126 1.23439 5.82428 5.17582 5.82428 5.47419C5.82428 5.70439 5.74404 5.76114 4.95925 6.08598C4.24972 6.37967 4.02221 6.59049 4.14081 6.8444C4.17936 6.92693 5.00773 7.6393 5.98169 8.42752C6.95565 9.21574 8.08395 10.13 8.48896 10.4593C10.8937 12.4144 11.1326 12.5928 11.347 12.5928C11.6014 12.5928 11.7269 12.4063 11.7276 12.0273C11.7282 11.6255 11.8746 11.1898 12.0247 11.1429C12.194 11.0901 15.7404 10.7839 16.1917 10.7831C16.6839 10.7823 16.786 10.9809 16.7901 11.947C16.7958 13.3003 16.3513 14.2976 15.3237 15.2364C14.6611 15.8418 14.1907 16.0557 13.5374 16.0488C13.256 16.0458 12.9904 16.0313 12.9471 16.0166L12.9468 16.0162Z" fill="white"/>
<path d="M12.5446 15.8982C10.7982 15.4842 8.56837 14.5097 7.00453 13.4771C4.40361 11.7597 2.34535 9.44524 0.936709 6.65401L0.4328 5.6555V4.97245C0.4328 4.35401 0.458186 4.23799 0.701188 3.74577C0.956392 3.22882 1.49838 2.48746 1.84617 2.17957C2.20166 1.8649 3.05647 1.35058 3.49178 1.1894C3.97713 1.00973 4.20441 1.02499 4.31904 1.24493C4.47985 1.55339 5.82393 5.3435 5.82393 5.48855C5.82393 5.70158 5.73379 5.76447 4.99754 6.06505C4.23723 6.37546 4.05397 6.52578 4.11913 6.78553C4.15117 6.91319 5.26285 7.86361 7.55652 9.7244C9.42101 11.237 11.0462 12.5169 11.1679 12.5686C11.5364 12.7251 11.6933 12.5488 11.7528 11.9114C11.7859 11.5568 11.8487 11.3354 11.9416 11.2459C12.0525 11.139 12.4175 11.0828 13.7336 10.9699C14.6427 10.8919 15.6513 10.8267 15.9749 10.8249C16.5495 10.8219 16.566 10.8273 16.675 11.0531C16.8491 11.4141 16.8155 12.6714 16.6147 13.3067C16.3162 14.2511 15.3738 15.3661 14.4835 15.8283C14.0199 16.069 13.3645 16.0926 12.5444 15.8982L12.5446 15.8982Z" fill="white"/>
<path d="M12.3171 15.821C7.46629 14.5652 3.45035 11.3852 1.08531 6.92593C0.253171 5.35721 0.20044 4.75678 0.794763 3.61447C1.19665 2.842 1.90992 2.04843 2.54781 1.66419C3.14498 1.30445 3.90993 1.00453 4.08694 1.06071C4.24368 1.11046 4.4577 1.55613 4.80592 2.55781C4.9263 2.90411 5.20554 3.68327 5.42646 4.28929C5.65597 4.91888 5.81071 5.46316 5.78747 5.55918C5.7572 5.68431 5.54506 5.8134 4.95715 6.06442C4.3392 6.32829 4.15752 6.44145 4.12147 6.58484C4.09618 6.68562 4.09426 6.817 4.11721 6.87681C4.14016 6.93662 4.57783 7.3243 5.08983 7.7383C5.60183 8.15231 6.74678 9.07965 7.63417 9.79908C10.7127 12.2949 11.1908 12.6711 11.2837 12.6711C11.335 12.6711 11.452 12.6186 11.5438 12.5543C11.6753 12.4622 11.7224 12.3198 11.7664 11.8817C11.8113 11.4341 11.8551 11.3055 11.9909 11.2211C12.2348 11.0698 16.2995 10.7388 16.5127 10.8529C16.8025 11.008 16.8704 12.136 16.6485 13.1093C16.5006 13.7581 16.1095 14.4046 15.4883 15.0268C14.4143 16.1027 13.9024 16.2309 12.3171 15.8205L12.3171 15.821Z" fill="white"/>
<path d="M12.8287 15.9328C9.16569 15.1416 5.65165 12.984 3.09464 9.95625C1.96013 8.61278 0.502381 6.01571 0.41864 5.18878C0.331027 4.32351 0.829237 3.2673 1.77069 2.32239C2.42303 1.66767 3.33398 1.15938 3.87491 1.14828C4.28115 1.13996 4.2794 1.13702 4.92246 2.91353C5.68496 5.01988 5.82574 5.45849 5.78269 5.59394C5.75833 5.67068 5.42138 5.85734 4.97566 6.04099C4.35553 6.29651 4.1961 6.39618 4.13479 6.56667C4.08479 6.70566 4.08684 6.82238 4.14081 6.91062C4.22694 7.05143 10.454 12.1491 10.9572 12.4907C11.4878 12.851 11.8036 12.5648 11.8049 11.7225C11.8057 11.2011 11.8811 11.1655 13.229 11.0502C13.8961 10.9932 14.8799 10.9059 15.4151 10.8562C16.6519 10.7414 16.6819 10.7614 16.7412 11.7374C16.8251 13.1193 16.479 13.9932 15.4329 15.0407C14.8927 15.5816 14.6651 15.7518 14.3012 15.8868C13.7803 16.08 13.5444 16.0874 12.8285 15.9328L12.8287 15.9328Z" fill="white"/>
<path d="M12.6138 15.8588C10.2693 15.3136 7.96906 14.2127 5.86043 12.6267C4.58755 11.6692 2.85347 9.76311 1.89706 8.27002C1.40668 7.50447 0.695022 6.15455 0.555953 5.72616C0.26412 4.82721 0.487625 3.97209 1.31571 2.8194C2.00807 1.85567 3.9138 0.787112 4.21862 1.19165C4.31225 1.31591 4.51366 1.83684 5.2749 3.92377C5.91107 5.66776 5.91015 5.6998 5.21697 5.93921C4.44773 6.20495 4.13353 6.40021 4.10709 6.62896C4.07226 6.93036 4.12811 7.00137 4.87948 7.61086C7.34275 9.60899 10.1917 11.9171 10.6209 12.2625C10.9001 12.4871 11.2032 12.6709 11.2945 12.6709C11.6516 12.6709 11.7865 12.4368 11.7996 11.7942C11.8102 11.2725 11.9802 11.1642 12.9125 11.0848C16.682 10.7641 16.3982 10.7765 16.5486 10.9261C16.7713 11.1477 16.8174 12.1691 16.6413 12.9839C16.4689 13.782 15.9924 14.5549 15.2696 15.209C14.3763 16.0174 13.8499 16.1462 12.6138 15.8588Z" fill="white"/>
</svg>
